<svg viewBox="0 433.2 162 134" version="1.1" xmlns="http://www.w3.org/2000/svg" id="Layer_1">

  <defs>
    <style>
      .st0 {
        fill: #f8e92a;
      }

      .st1 {
        fill: #d92127;
      }

      .st2 {
        fill: #d91e24;
      }

      .st3 {
        fill: #d91c21;
      }

      .st4 {
        fill: #e0dedc;
      }

      .st5 {
        fill: #f8ea2b;
      }

      .st6 {
        fill: #e1e0db;
      }

      .st7 {
        fill: #d91b21;
      }

      .st8 {
        fill: #e0dddc;
      }

      .st9 {
        fill: #e0dbdb;
      }

      .st10 {
        fill: #f7e92a;
      }

      .st11 {
        fill: #d81d23;
      }

      .st12 {
        fill: #d91c22;
      }

      .st13 {
        fill: #e0dadb;
      }
    </style><style class="darkreader darkreader--sync" media="screen"/>
  </defs>
  <path d="M20.28,472.47c-.45-1.12-.53-2.25-.29-3.43.28-1.39.45-2.81.72-4.21.45-2.33,2.02-3.61,4.16-4.35,3.36-1.15,6.72-2.31,10.07-3.48.87-.3,1.78-.57,2.55-1.04.67-.41,1.17-1.11,1.76-1.66.52-.49,1.05-.99,1.6-1.44.87-.71,1.45-.72,2.39-.08,1.6,1.07,3.08,2.28,4.28,3.79.71.88,1.33,1.86,1.85,2.87.36.71.88,1.03,1.58,1.18.63.14,1.27.26,1.91.36.38.06.78.05,1.24.07-.11-1.45.23-2.8-.42-4.08-.27-.53.13-1.01.39-1.41,1.04-1.62,2.13-3.21,3.21-4.81.62-.91,1.44-.97,2.32-.66.51.18,1.01.41,1.52.56.27.08.58.04,1.09.06-.32-.56-.58-.89-.71-1.28-.13-.38-.23-.8.29-1.07.52-.27.98-.32,1.44.08.2.18.39.41.62.5.1.04.48.46.58-.24.09-.58.84-.54,1.46-.19.38.21.89.2,1.44.31,1.88,3.06,3.66,6.11,5.45,9.15,2.4,4.1,4.81,8.19,7.17,12.33-5.02,2.23-9.14,5.51-12.43,9.84-1.65,2.18-2.89,4.59-4.06,7.05-4.28-1.46-8.51-2.89-12.73-4.34-5.18-1.78-10.36-3.57-15.53-5.35-3.39-1.17-6.77-2.36-10.17-3.51-1.58-.54-3.18-1.01-4.77-1.51Z" class="st7"/>
  <path d="M27.66,556.61c-.44-.04-.88-.06-1.31-.14-1.3-.24-2.27.32-3.15,1.2-1.24,1.25-2.5,1.56-4.18.17-1.07-.88-1.45-2.05-1.75-3.31-.34-1.42-.76-2.82-1.11-4.24-.4-1.6-.76-3.21-1.12-4.82-.33-1.46-.96-2.04-2.43-1.94-1.1.07-1.92-.57-2.86-.88-.2-.06-.3-.73-.29-1.11.1-2.05-.63-3.87-1.64-5.58-.53-.89-1.21-1.68-1.81-2.53-.16-.23-.27-.49-.35-.81,6.7-2.75,13.33-5.42,19.97-8.08,6.19-2.48,12.39-4.96,18.59-7.43,6.4-2.56,12.79-5.11,19.22-7.62.81,1.63,1.5,3.25,2.39,4.76.83,1.42,1.86,2.72,2.75,4.1-.64.58-1.23,1.11-1.82,1.66-6.89,6.42-13.78,12.85-20.66,19.28-4.57,4.27-9.14,8.53-13.7,12.81-1.59,1.49-3.16,3-4.74,4.5Z" class="st7"/>
  <path d="M4.34,514.2c.13-1.34-.65-2.38-1.16-3.52-.02-.04-.06-.09-.1-.11-1.43-.53-1.38-1.72-1.34-2.94.02-.7-.06-1.41-.1-2.08,1.21-.36,2.42-.69,3.62-1.07,1.57-.5,2.29-2.01,1.56-3.59-.87-1.89-1.38-3.95-1.4-6.1-.01-1.44-.19-2.89-.3-4.33-.11-1.43.72-2.48,1.63-3.33,1.37-1.27,1.72-2.15,1.16-3.98,1.23.19,2.41.4,3.58.63,3.88.75,7.77,1.52,11.65,2.26,4.46.86,8.93,1.7,13.39,2.56,5.08.97,10.17,1.95,15.25,2.93,3.34.64,6.67,1.29,10.01,2.01-.48,3.39-.47,6.71-.03,10.04-4.07.76-8.07,1.51-12.08,2.25-5.52,1.02-11.03,2.04-16.55,3.05-4.63.84-9.26,1.67-13.89,2.51-3.12.56-6.24,1.13-9.35,1.71-1.86.35-3.7.74-5.56,1.11Z" class="st7"/>
  <path d="M97.13,539.38c-2.1.53-4.07,1.37-5.66,2.86-.46.43-.87,1.17-.86,1.77.02,1.93-.88,3.25-2.35,4.33-.38.28-.75.66-.94,1.08-.48,1.1-1.32,1.81-2.3,2.4-1.02.63-1.62,1.44-1.53,2.72.08,1.12-.52,1.57-1.56,1.97-1.28.49-2.39-.06-3.54-.31-1.04-.23-1.75.35-2.56.7-.09.04-.13.27-.15.41-.06.44-.09.88-.13,1.3-.1.05-.15.1-.19.09-1.53-.29-2.38.71-3.21,1.7-.58.69-2.03.77-2.74.11-.64-.59-1.24-1.23-1.94-1.74-.43-.32-.99-.59-1.52-.66-1.6-.23-3.22-.41-4.83-.5-.99-.06-1.86.4-2.59,1.07-.47.43-.94.87-1.35,1.36-.91,1.08-2.13,1.33-3.43,1.4-1.79.1-3.53-.18-5.28-.6-1.41-.34-2.77.25-4.12.66-.81.25-1.65.39-2.52.52,5.52-6.95,11.09-13.84,16.65-20.74,4.96-6.15,9.91-12.3,14.91-18.44,3.16,2.33,6.54,4.09,10.28,5.15,4.27,1.21,8.6,1.43,12.98.93.12,3.28.23,6.49.35,9.7,0,.25.09.5.14.76Z" class="st7"/>
  <path d="M86.08,443.16c.68-.04,1.37-.19,2.03-.1,1.25.18,2.1-.44,2.92-1.21.3-.29.62-.56.96-.8.52-.36,1.05-.3,1.62-.02,1.43.7,2.87,1.37,4.33,2.01,1.83.79,3.67.58,5.46-.13,2.39-.96,4.78-1.93,7.12-3.01.68-.31,1.21-.97,1.78-1.5.3-.28.59-.69,1-.43.24.15.44.6.43.9-.05,1.33.61,2.1,1.67,2.83.81.56,1.59.86,2.53.87.15,0,.35.12.45.25,1.08,1.45,2.16,2.91,3.22,4.38.49.69.94,1.41,1.4,2.12.72,1.08,1.65,1.96,2.72,2.66.49.32.88.66.91,1.34-.23.24-.41.39-.56.57-2.91,3.6-5.81,7.19-8.71,10.8-2.4,2.98-4.79,5.97-7.23,8.94-.23-.13-.41-.24-.59-.36-4.41-3.03-9.27-4.93-14.62-5.26-2.61-.16-5.25.11-7.88.1-.16-4.86-.32-9.65-.46-14.43-.09-2.95-.14-5.91-.24-8.86-.02-.56-.17-1.11-.26-1.67Z" class="st7"/>
  <path d="M87.04,468.19c2.63-.07,5.27-.34,7.88-.18,5.35.33,10.2,2.23,14.62,5.26.17.12.36.23.62.4,1.66,1.48,3.24,2.9,4.84,4.37,1.18,1.66,2.41,3.22,3.48,4.89.76,1.17,1.31,2.48,1.96,3.78.6,1.97,1.19,3.89,1.78,5.87.59,3.46.68,6.87.22,10.36-.53,2.14-1.05,4.22-1.6,6.34-1.11,2.78-2.5,5.34-4.16,7.58,1.37,1.38,2.67,2.69,4,4.03.12-.11.3-.27.47-.43,1.17-1.16,1.62-1.17,2.78-.01,5.51,5.49,11,11,16.52,16.49.22.22.55.33.83.5.41.44.81.9,1.23,1.33,1.24,1.26,2.5,2.52,3.75,3.78.64.64.65,1.84,0,2.5-2.54,2.54-5.08,5.09-7.63,7.63-.77.77-1.87.66-2.59-.16-.45-.52-1.03-.91-1.52-1.4-3.34-3.34-6.67-6.69-10.04-10.13-.18-.28-.32-.47-.49-.64-3.4-3.41-6.81-6.81-10.21-10.22-.81-.81-.8-1.45-.02-2.26.27-.28.53-.56.76-.8-1.37-1.36-2.67-2.65-4-3.98-.59.4-1.2.87-1.86,1.25-1.5.86-3.02,1.67-4.59,2.52-2.52.69-4.98,1.37-7.44,2.05-4.38.56-8.71.35-12.98-.86-3.74-1.06-7.12-2.82-10.31-5.19-1.63-1.53-3.17-2.99-4.72-4.46-.94-1.35-1.98-2.65-2.81-4.07-.88-1.51-1.57-3.14-2.39-4.82-.56-2.03-1.08-3.96-1.61-5.89-.5-3.32-.52-6.64,0-10.07.59-2.18,1.14-4.23,1.7-6.29,1.11-2.48,2.35-4.89,4-7.07,3.29-4.33,7.41-7.61,12.49-9.84,2.41-.73,4.72-1.41,7.02-2.09M128.06,540.44c3.11,3.09,6.22,6.17,9.22,9.15,2-2,3.96-3.96,5.96-5.96-1.68-1.68-3.44-3.43-5.18-5.18-.86-.87-1.7-1.76-2.58-2.73-.1-.12-.19-.26-.3-.37-4.07-4.07-8.14-8.14-12.21-12.21-.13-.13-.28-.22-.26-.21-2.11,2.07-4.16,4.1-6.23,6.14.06.07.14.17.24.26,3.49,3.49,6.97,6.98,10.46,10.45.24.24.56.38.89.66M64.05,497.87c.15,1.91.13,3.85.48,5.72,3.21,17.4,21.71,28.05,38.95,20.54,12.17-5.3,18.83-18.54,16.06-31.46-3.64-16.99-21.55-26.79-37.64-20.28-11.22,4.54-17.08,13.23-17.85,25.47M113.18,520.8c-.16.17-.31.35-.35.39,1.27,1.28,2.5,2.51,3.61,3.62.66-.65,1.38-1.36,2.05-2.02-1.16-1.16-2.38-2.38-3.61-3.61.01,0-.05,0-.08.03-.51.5-1.02,1-1.62,1.59Z" class="st8"/>
  <path d="M61.77,503.57c.58,1.92,1.11,3.85,1.63,5.83-6.39,2.61-12.79,5.16-19.18,7.72-6.2,2.48-12.4,4.95-18.59,7.43-6.64,2.66-13.27,5.34-19.96,8.02-.59-1.99-1.14-3.99-1.67-6-.11-.43-.16-.88-.18-1.33-.03-.83,0-1.65,0-2.5.99.12,1.62-.23,2.19-.96.75-.96,1.15-2.04,1.47-3.17.35-1.28-.77-3.05-2.07-3.44-.44-.13-1.03-.18-1.08-.91,1.86-.44,3.71-.83,5.57-1.18,3.11-.59,6.23-1.15,9.35-1.71,4.63-.84,9.26-1.66,13.89-2.51,5.52-1.01,11.03-2.03,16.55-3.05,4.01-.74,8.01-1.49,12.08-2.25Z" class="st0"/>
  <path d="M68.58,518.37c1.6,1.43,3.14,2.9,4.72,4.41-4.92,6.2-9.87,12.35-14.83,18.5-5.56,6.9-11.13,13.79-16.72,20.73-2.75.18-5.47.31-8.31.44,0-.64.02-1.19,0-1.74-.06-1.67-.84-2.92-2.63-3.29-1.02-.21-2.02-.52-3.09-.8,1.51-1.51,3.09-3.02,4.68-4.51,4.56-4.27,9.13-8.54,13.7-12.81,6.89-6.43,13.77-12.85,20.66-19.28.58-.54,1.17-1.08,1.82-1.66Z" class="st0"/>
  <path d="M122.46,502.86c.44-3.42.35-6.83-.17-10.3.65-.16,1.23-.22,1.81-.33,4.5-.83,8.99-1.67,13.48-2.5,5.6-1.03,11.2-2.05,16.81-3.08.41.87,1.11,1.21,2.06,1.18,1.13-.03,2.32,1.2,2.26,2.44-.05,1.09-.24,2.18-.48,3.25-.11.45-.54.83-.78,1.26-.38.69-.69,1.43-1.11,2.1-.22.35-.58.72-.95.84-.57.18-.92.43-.97,1.04-.1,1.09-.3,2.18-.28,3.27,0,.55.36,1.12.62,1.64.27.54.29,1.02.19,1.63-.19,1.16-.15,2.36-.28,3.61-2.14-.32-4.2-.7-6.26-1.09-3.92-.75-7.83-1.5-11.75-2.25-4.73-.91-9.45-1.81-14.18-2.72Z" class="st3"/>
  <path d="M120.43,486.65c-.64-1.25-1.19-2.55-1.95-3.72-1.07-1.66-2.3-3.23-3.44-4.93,6.15-5.8,12.28-11.51,18.4-17.22,1.45.79,2.89,1.58,4.35,2.35.36.19.76.31,1.16.4.75.18,1.46.34,1.89,1.13.12.21.64.27.98.29.85.04,1.7.04,2.55,0,.45-.02.62.16.75.57.39,1.26.52,1.31,1.82.91.65-.2,1.74.58,1.85,1.28.15.91.34,1.82.48,2.74.12.77.19,1.55.32,2.31.12.67.31,1.34.4,2.08-2.54,1.04-5.02,2-7.49,2.99-3.83,1.53-7.65,3.09-11.48,4.62-3.53,1.41-7.07,2.8-10.61,4.2Z" class="st7"/>
  <path d="M63.48,487.18c-.5,2.07-1.05,4.13-1.65,6.23-3.37-.6-6.71-1.25-10.04-1.89-5.08-.98-10.17-1.95-15.25-2.93-4.46-.85-8.93-1.7-13.39-2.56-3.89-.75-7.77-1.51-11.65-2.26-1.17-.23-2.34-.45-3.57-.69-.17-.45-.32-.87-.4-1.31-.22-1.34.02-2.45,1.66-2.79.36.42.76.94,1.22,1.41.79.82,2.02.59,2.55-.37.81-1.46.83-1.45,1.87-.16.13.16.24.34.36.51.77,1.12,1.54,1.13,2.51.14,1.21-1.24,2.08-2.67,2.61-4.3.33-1.01.43-2.09.08-3.15-.05-.15-.05-.31-.08-.53,1.57.43,3.17.91,4.75,1.44,3.39,1.15,6.78,2.34,10.17,3.51,5.18,1.79,10.35,3.58,15.53,5.35,4.22,1.45,8.45,2.88,12.73,4.34Z" class="st0"/>
  <path d="M141.28,537.35c-.29-.1-.62-.22-.84-.44-5.51-5.49-11.01-10.99-16.52-16.49-1.16-1.16-1.61-1.14-2.78.01-.17.17-.35.32-.47.43-1.33-1.34-2.63-2.65-4-4.03,1.66-2.23,3.05-4.8,4.23-7.55,1.03.3,1.96.61,2.89.93,3.29,1.13,6.58,2.27,9.87,3.4,3.54,1.22,7.08,2.44,10.63,3.65,3.47,1.19,6.94,2.36,10.41,3.54-.37,1.59-1.14,2.09-2.83,1.92-1.38-.14-2.78-.35-4.16-.29-1.78.07-3.5.54-4.69,2.03-.24.3-.22.8-.3,1.21-.17.93-.38,1.85-.46,2.78-.23,2.52-.39,5.05-.61,7.57-.04.43-.23.84-.36,1.32Z" class="st12"/>
  <path d="M154.71,520.74c-3.48-1.11-6.95-2.28-10.42-3.46-3.54-1.21-7.08-2.43-10.63-3.65-3.29-1.13-6.58-2.27-9.87-3.4-.93-.32-1.86-.63-2.85-.98.45-2.1.97-4.18,1.5-6.32,4.75.84,9.47,1.75,14.2,2.65,3.92.75,7.83,1.5,11.75,2.25,2.06.39,4.12.77,6.25,1.17.13,1.35.17,2.7.26,4.03.03.43.14.88.32,1.27.27.59.15,1.12-.26,1.51-.8.74-.56,1.64-.5,2.52.05.78.17,1.55.25,2.4Z" class="st0"/>
  <path d="M87.04,468.11c-2.3.76-4.61,1.44-6.98,2.13-2.46-4.09-4.87-8.18-7.27-12.28-1.78-3.04-3.56-6.09-5.38-9.18.63-.23,1.3-.44,1.98-.59.27-.06.57.01.86.05.52.07,1.04.24,1.55.21,1.39-.07,2.76.06,4.05.54.98.36,1.87-.02,2.27-.61.88-1.28,2.24-1.77,3.4-2.58,1.31-.91,2.71-1.69,4.07-2.51.11-.06.25-.07.43-.12.15.54.3,1.09.32,1.65.1,2.95.15,5.91.24,8.86.14,4.78.31,9.57.46,14.43Z" class="st0"/>
  <path d="M120.44,486.71c3.53-1.45,7.07-2.84,10.6-4.25,3.83-1.53,7.65-3.09,11.48-4.62,2.47-.99,4.95-1.95,7.48-2.93.28,1.09.48,2.18.73,3.27.09.38.21.94.47,1.05,1.21.5,1.26,1.64,1.6,2.62.54,1.57,1.06,3.14,1.59,4.77-5.61,1.08-11.21,2.1-16.81,3.13-4.5.83-8.99,1.67-13.48,2.5-.57.11-1.16.17-1.81.26-.66-1.91-1.25-3.82-1.85-5.79Z" class="st0"/>
  <path d="M133.42,460.73c-6.1,5.76-12.23,11.47-18.4,17.22-1.62-1.38-3.2-2.8-4.81-4.26,2.36-3.03,4.75-6.02,7.15-9,2.9-3.6,5.8-7.2,8.71-10.8.15-.18.34-.33.56-.52.36.7.64,1.42.97,2.12.65,1.43,1.85,2.34,3.08,3.21.91.65,1.81,1.31,2.74,2.02Z" class="st0"/>
  <path d="M104.14,526.79c1.51-.83,3.03-1.65,4.53-2.51.66-.38,1.28-.85,1.86-1.25,1.34,1.33,2.63,2.62,4,3.98-.23.24-.5.52-.76.8-.78.81-.78,1.46.02,2.26,3.4,3.41,6.81,6.81,10.21,10.22.17.17.31.36.47.59-1.25.22-2.34-.15-3.38-.87-.45-.31-1.1-.49-1.66-.48-1.13.03-2.25.24-3.38.37-.01.08-.03.16-.04.25-.11-.25-.29-.49-.33-.75-.17-1.02-.39-1.15-1.47-1.35-1.34-.24-2.65-.63-4.04-1.02-.89-1.51-1.71-2.96-2.55-4.39-1.15-1.96-2.32-3.91-3.48-5.86Z" class="st11"/>
  <path d="M104.08,526.8c1.22,1.94,2.39,3.89,3.54,5.85.84,1.43,1.66,2.88,2.49,4.38-1.08.03-2.17.05-3.09.74-.55.41-1.01.93-1.57,1.32-.58.41-1.21.78-1.86,1.08-.26.12-.67.06-.95-.06-.57-.25-1.13-.56-1.64-.92-.23-.16-.4-.46-.52-.73-.29-.68-.54-.8-.99-.25-.6.73-1.41.94-2.31,1.16-.11-.24-.19-.5-.2-.75-.12-3.21-.23-6.42-.35-9.7,2.45-.75,4.92-1.43,7.44-2.12Z" class="st10"/>
  <path d="M64.05,497.8c.77-12.17,6.63-20.86,17.85-25.4,16.09-6.51,33.99,3.29,37.64,20.28,2.77,12.92-3.89,26.16-16.06,31.46-17.24,7.51-35.74-3.14-38.95-20.54-.35-1.87-.33-3.81-.48-5.8M75.43,514.09c5.8,5.98,12.88,8.33,21.01,6.8,12.55-2.35,20.52-14.52,17.97-27.05-2.36-11.64-13.75-20.18-26.59-17.78-10.3,1.93-17.88,10.55-18.51,20.96-.39,6.48,1.65,12.16,6.11,17.06M86.75,474.81c2.97-.68,5.96-.72,8.97-.25.91.14,1.55-.33,1.64-1.11.09-.72-.42-1.32-1.28-1.44-.87-.13-1.74-.27-2.62-.31-7.66-.37-14.32,2.08-19.94,7.25-1.46,1.34-2.67,2.96-3.94,4.5-.52.64-.35,1.4.24,1.83.58.42,1.33.29,1.84-.33.17-.21.31-.43.47-.64,3.7-4.88,8.49-8.08,14.6-9.5M108.61,478.22c-.2-.31-.33-.69-.6-.9-2.09-1.69-4.4-3-6.91-3.95-.82-.31-1.53-.04-1.82.65-.3.72.04,1.45.89,1.78,2.26.86,4.32,2.07,6.23,3.54,1.02.79,2.04.31,2.21-1.11Z" class="st2"/>
  <path d="M128.01,540.35c-.28-.19-.61-.33-.85-.57-3.5-3.48-6.98-6.97-10.46-10.45-.09-.09-.18-.2-.24-.26,2.07-2.04,4.13-4.06,6.23-6.14-.02-.01.14.08.26.21,4.07,4.07,8.14,8.14,12.21,12.21.11.11.2.24.26.46-.06.65.1,1.31-.14,1.74-1.42,2.5-2.9,3.31-5.72,2.94-.52-.07-1.04-.09-1.56-.13Z" class="st7"/>
  <path d="M113.22,520.76c.55-.54,1.06-1.05,1.57-1.55.03-.03.1-.04.08-.03,1.24,1.24,2.45,2.45,3.61,3.61-.67.66-1.4,1.37-2.05,2.02-1.11-1.12-2.34-2.35-3.61-3.62.04-.04.19-.21.39-.43Z" class="st1"/>
  <path d="M75.39,514.05c-4.42-4.86-6.47-10.54-6.07-17.02.63-10.41,8.22-19.03,18.51-20.96,12.83-2.41,24.22,6.13,26.59,17.78,2.54,12.53-5.42,24.7-17.97,27.05-8.14,1.53-15.21-.82-21.05-6.84M110.85,505.95c.05-.15.11-.3.16-.45,2.51-7.73,1.31-14.8-4.24-20.79-4.94-5.32-11.22-7.24-18.38-6.01-8.82,1.53-15.81,8.97-16.39,18.42-.41,6.71,1.93,12.4,7.1,16.77,5.04,4.27,10.92,5.67,17.33,4.27,6.85-1.49,11.6-5.67,14.42-12.21Z" class="st4"/>
  <path d="M86.68,474.82c-6.04,1.41-10.84,4.61-14.54,9.48-.16.21-.31.44-.47.64-.51.62-1.26.75-1.84.33-.6-.43-.77-1.19-.24-1.83,1.27-1.54,2.48-3.16,3.94-4.5,5.62-5.17,12.28-7.62,19.94-7.25.88.04,1.75.18,2.62.31.86.13,1.37.73,1.28,1.44-.09.77-.73,1.25-1.64,1.11-3.01-.47-6-.43-9.04.27Z" class="st9"/>
  <path d="M108.61,478.28c-.18,1.36-1.19,1.83-2.22,1.04-1.91-1.47-3.97-2.68-6.23-3.54-.85-.32-1.19-1.06-.89-1.78.29-.68,1-.96,1.82-.65,2.51.95,4.82,2.26,6.91,3.95.27.22.4.6.61.97Z" class="st13"/>
  <path d="M110.82,506c-2.8,6.49-7.54,10.66-14.39,12.16-6.41,1.4-12.28,0-17.33-4.27-5.17-4.37-7.51-10.07-7.1-16.77.58-9.45,7.57-16.89,16.39-18.42,7.16-1.24,13.44.68,18.38,6.01,5.55,5.99,6.75,13.06,4.24,20.79-.05.15-.11.3-.19.51M106.52,506.6c2.24-4.19,2.89-8.63,2.08-13.3-.17-.98-.77-1.47-1.65-1.31-.74.13-1.1.82-.96,1.73.89,5.57-.2,10.59-4.14,14.79-.65.69-1.43,1.27-2.14,1.91-.59.53-.71,1.21-.33,1.77.44.66,1.24.75,2.03.19,2.12-1.5,3.76-3.44,5.11-5.79M93.2,512.97c-.26.04-.52.08-.79.12-.86.15-1.4.7-1.33,1.39.07.72.76,1.33,1.6,1.16,1.78-.36,3.55-.82,5.3-1.33.89-.26,1.22-1.03.93-1.74-.31-.77-.99-.97-1.92-.67-1.21.39-2.44.71-3.8,1.07Z" class="st5"/>
  <path d="M106.49,506.65c-1.32,2.3-2.96,4.23-5.08,5.74-.79.56-1.59.47-2.03-.19-.37-.57-.25-1.25.33-1.77.71-.64,1.49-1.21,2.14-1.91,3.94-4.21,5.03-9.23,4.14-14.79-.15-.92.22-1.6.96-1.73.88-.16,1.48.33,1.65,1.31.81,4.67.16,9.11-2.11,13.35Z" class="st6"/>
  <path d="M93.27,512.97c1.29-.36,2.52-.67,3.73-1.06.93-.3,1.61-.1,1.92.67.29.71-.04,1.47-.93,1.74-1.75.52-3.52.97-5.3,1.33-.85.17-1.54-.44-1.6-1.16-.06-.68.47-1.24,1.33-1.39.26-.04.52-.08.85-.13Z" class="st6"/>
</svg>